<svg xmlns="http://www.w3.org/2000/svg" viewBox="0 0 100 100" width="100%" height="100%">
  <rect width="100" height="100" fill="#050505" />

  <g stroke="#F4C430" stroke-width="1.5" stroke-linecap="round">
    <line x1="50" y1="55" x2="50" y2="6" transform="rotate(0 50 55)" />
    <line x1="50" y1="55" x2="50" y2="6" transform="rotate(45 50 55)" />
    <line x1="50" y1="55" x2="50" y2="6" transform="rotate(90 50 55)" />
    <line x1="50" y1="55" x2="50" y2="6" transform="rotate(135 50 55)" />
    <line x1="50" y1="55" x2="50" y2="6" transform="rotate(180 50 55)" />
    <line x1="50" y1="55" x2="50" y2="6" transform="rotate(225 50 55)" />
    <line x1="50" y1="55" x2="50" y2="6" transform="rotate(270 50 55)" />
    <line x1="50" y1="55" x2="50" y2="6" transform="rotate(315 50 55)" />

    <line x1="50" y1="55" x2="50" y2="16" transform="rotate(22.5 50 55)" />
    <line x1="50" y1="55" x2="50" y2="16" transform="rotate(67.5 50 55)" />
    <line x1="50" y1="55" x2="50" y2="16" transform="rotate(112.5 50 55)" />
    <line x1="50" y1="55" x2="50" y2="16" transform="rotate(157.5 50 55)" />
    <line x1="50" y1="55" x2="50" y2="16" transform="rotate(202.5 50 55)" />
    <line x1="50" y1="55" x2="50" y2="16" transform="rotate(247.5 50 55)" />
    <line x1="50" y1="55" x2="50" y2="16" transform="rotate(292.5 50 55)" />
    <line x1="50" y1="55" x2="50" y2="16" transform="rotate(337.5 50 55)" />
  </g>

  <polygon points="50,22 18,76 82,76" fill="#050505" />

  <polygon points="50,22 18,76 82,76" fill="none" stroke="#F4C430" stroke-width="3.5" stroke-linejoin="round" />

  <path d="M 31 58 Q 50 41 69 58 Q 50 75 31 58" fill="none" stroke="#F4C430" stroke-width="2.5" />

  <circle cx="50" cy="58" r="5.5" fill="none" stroke="#F4C430" stroke-width="1.5" />

  <circle cx="50" cy="58" r="2.5" fill="#F4C430" />
</svg>
